<svg xmlns="http://www.w3.org/2000/svg" width="187.518" height="40" viewBox="0 0 187.518 40">
  <g id="Layer_2" data-name="Layer 2" transform="translate(-0.009 -0.002)">
    <g id="Layer_1" data-name="Layer 1" transform="translate(0.009 0.001)">
      <path id="Path_179" data-name="Path 179" d="M158.07,61.613v-21.7h6.676A10.144,10.144,0,0,1,169.87,41.2a9,9,0,0,1,3.525,3.666,11.339,11.339,0,0,1,1.267,5.4v1a11.349,11.349,0,0,1-1.244,5.379,8.9,8.9,0,0,1-3.51,3.651,10.221,10.221,0,0,1-5.112,1.312Zm4.471-18.075v14.5H164.7a4.846,4.846,0,0,0,4.006-1.717,7.8,7.8,0,0,0,1.415-4.925V50.248a7.868,7.868,0,0,0-1.37-5.013,4.838,4.838,0,0,0-4.01-1.705Z" transform="translate(-97.573 -24.57)" fill="#050706"/>
      <path id="Path_180" data-name="Path 180" d="M220,70.162a4.761,4.761,0,0,1-.435-1.446A5.2,5.2,0,0,1,215.5,70.46a5.722,5.722,0,0,1-3.926-1.362A4.406,4.406,0,0,1,210,65.634a4.557,4.557,0,0,1,1.908-3.937,9.335,9.335,0,0,1,5.5-1.373h1.98v-.935a2.67,2.67,0,0,0-.572-1.789A2.258,2.258,0,0,0,217,56.928a2.568,2.568,0,0,0-1.705.523,1.77,1.77,0,0,0-.618,1.431h-4.3a4.338,4.338,0,0,1,.866-2.594,5.723,5.723,0,0,1,2.442-1.869,8.942,8.942,0,0,1,3.548-.679,7.031,7.031,0,0,1,4.731,1.5,5.226,5.226,0,0,1,1.751,4.2v6.993a7.68,7.68,0,0,0,.641,3.475v.252Zm-3.563-2.995a3.72,3.72,0,0,0,1.759-.423,2.781,2.781,0,0,0,1.19-1.144V62.83h-1.606c-2.159,0-3.3.763-3.434,2.236v.256a1.725,1.725,0,0,0,.568,1.324A2.2,2.2,0,0,0,216.438,67.167Z" transform="translate(-129.629 -33.119)" fill="#050706"/>
      <path id="Path_181" data-name="Path 181" d="M261.044,54.029l.134,1.8a5.665,5.665,0,0,1,4.635-2.1,4.3,4.3,0,0,1,4.277,2.461,5.536,5.536,0,0,1,4.841-2.461,4.81,4.81,0,0,1,3.9,1.526,6.982,6.982,0,0,1,1.282,4.578v10.3H275.8V59.874a3.068,3.068,0,0,0-.538-2.007,2.4,2.4,0,0,0-1.908-.633,2.69,2.69,0,0,0-2.67,1.85V70.148h-4.288V59.889a3.055,3.055,0,0,0-.549-2.03,2.378,2.378,0,0,0-1.877-.626A2.793,2.793,0,0,0,261.3,58.76v11.4H257V54.029Z" transform="translate(-158.625 -33.112)" fill="#050706"/>
      <path id="Path_182" data-name="Path 182" d="M326.907,61.951a9.539,9.539,0,0,1,.927-4.277,6.726,6.726,0,0,1,2.671-2.907,7.736,7.736,0,0,1,4.029-1.03,7.38,7.38,0,0,1,5.341,2,7.9,7.9,0,0,1,2.289,5.425l.03,1.1a8.425,8.425,0,0,1-2.072,5.951,8.018,8.018,0,0,1-11.117.008,8.554,8.554,0,0,1-2.079-6.081Zm4.307.305a6.039,6.039,0,0,0,.866,3.514,3.105,3.105,0,0,0,4.917,0,6.563,6.563,0,0,0,.877-3.842A5.959,5.959,0,0,0,337,58.433a2.865,2.865,0,0,0-2.476-1.236,2.808,2.808,0,0,0-2.442,1.228A6.781,6.781,0,0,0,331.215,62.256Z" transform="translate(-201.791 -33.117)" fill="#050706"/>
      <path id="Path_183" data-name="Path 183" d="M380.125,54.032l.134,1.866a5.627,5.627,0,0,1,4.635-2.163,4.682,4.682,0,0,1,3.815,1.507,7,7,0,0,1,1.282,4.5V70.158h-4.307v-10.3a2.806,2.806,0,0,0-.6-1.991,2.648,2.648,0,0,0-1.98-.618,2.964,2.964,0,0,0-2.728,1.545V70.162H376.07V54.032Z" transform="translate(-232.142 -33.114)" fill="#050706"/>
      <path id="Path_184" data-name="Path 184" d="M426.2,44.13v3.964h2.754v3.163H426.2V59.3a1.908,1.908,0,0,0,.34,1.282,1.723,1.723,0,0,0,1.312.381,6.941,6.941,0,0,0,1.267-.1v3.266a8.938,8.938,0,0,1-2.606.381q-4.532,0-4.62-4.578V51.256H419.54V48.094h2.354V44.13Z" transform="translate(-258.933 -27.176)" fill="#050706"/>
      <path id="Path_185" data-name="Path 185" d="M450,61.95a9.578,9.578,0,0,1,.923-4.277,6.76,6.76,0,0,1,2.671-2.907,7.736,7.736,0,0,1,4.036-1.03,7.38,7.38,0,0,1,5.341,2,7.9,7.9,0,0,1,2.289,5.425l.03,1.1a8.426,8.426,0,0,1-2.071,5.951,8.028,8.028,0,0,1-11.125.008A8.63,8.63,0,0,1,450,62.141Zm4.307.305a6.039,6.039,0,0,0,.866,3.514,3.105,3.105,0,0,0,4.918,0,6.6,6.6,0,0,0,.877-3.842,5.983,5.983,0,0,0-.877-3.495,2.865,2.865,0,0,0-2.461-1.221,2.808,2.808,0,0,0-2.442,1.228,6.673,6.673,0,0,0-.877,3.815Z" transform="translate(-277.77 -33.117)" fill="#050706"/>
      <path id="Path_186" data-name="Path 186" d="M3.183,30.139a9.9,9.9,0,0,0,7.084,2.827c3.746-.031,7.493-.111,11.235-.187a2.6,2.6,0,1,0-.069-5.169c-3.666.05-7.329.126-10.995.172A4.819,4.819,0,0,1,5.8,25.111a4.923,4.923,0,0,1,.381-5.364,4.79,4.79,0,0,1,4.059-2.022c2.255-.061,4.509-.092,6.764-.122a6.926,6.926,0,0,0,7.088-7.248c-.042-2.457-.08-4.914-.134-7.371C23.918,1.077,22.884-.068,21.247,0c-1.526.065-2.487,1.251-2.464,3.1.027,2.335.084,4.67.111,7.008.019,1.743-.454,2.258-2.167,2.289-2.217.061-4.433.069-6.646.122a10.3,10.3,0,0,0-9.4,6.634,10.094,10.094,0,0,0,2.5,10.98Z" transform="translate(-0.009 -0.001)" fill="#fff"/>
      <path id="Path_187" data-name="Path 187" d="M72.381,64.6a10.3,10.3,0,0,1-9.4,6.623c-1.248.031-2.5.046-3.743.069V66.095c1.194-.019,2.384-.042,3.578-.076A4.794,4.794,0,0,0,66.88,64a4.915,4.915,0,0,0,.382-5.364,4.817,4.817,0,0,0-4.639-2.671c-3.666.046-7.332.122-10.995.168a2.6,2.6,0,1,1-.072-5.165c3.746-.076,7.493-.156,11.235-.187a9.877,9.877,0,0,1,7.088,2.831A10.091,10.091,0,0,1,72.381,64.6Z" transform="translate(-30.13 -31.287)" fill="#050706"/>
      <rect id="Rectangle_72" data-name="Rectangle 72" width="0.969" height="5.177" transform="translate(27.175 34.808)" fill="#fff"/>
      <rect id="Rectangle_73" data-name="Rectangle 73" width="0.969" height="5.177" transform="translate(25.237 34.808)" fill="#fff"/>
    </g>
  </g>
</svg>
