<svg xmlns="http://www.w3.org/2000/svg" width="961.35" height="929.963" viewBox="0 0 961.35 929.963">
  <path id="blob_4_" data-name="blob (4)" d="M460,27.171C530.186,76.3,599.865,127.931,642.977,202.122c43.111,74.693,59.654,171.442,30.579,250.646S569.287,594.133,491.085,642.257c-78.7,48.124-160.915,82.713-234.605,70.682-73.69-11.53-138.858-69.68-194.5-124.822C5.833,532.474-40.787,479.337-55.826,418.681c-15.039-60.155,1.5-127.328,15.039-203.525C-27.252,138.458-16.725,52.737,30.9-3.408S163.239-86.623,240.94-77.1,389.824-21.956,460,27.171Z" transform="matrix(-0.259, -0.966, 0.966, -0.259, 254.387, 849.839)" fill="#a2d02e" opacity="0.102"/>
</svg>
