<svg xmlns="http://www.w3.org/2000/svg" width="25.465" height="25" viewBox="0 0 25.465 25">
  <path id="network" d="M24.4,20.833H15.72a3.155,3.155,0,0,0-1.927-1.892V14.583H20.16a3.171,3.171,0,0,0,2.973-2,3.075,3.075,0,0,0-.851-3.438V4.167A4.206,4.206,0,0,0,18.038,0H7.427A4.206,4.206,0,0,0,3.183,4.167V9.145a3.075,3.075,0,0,0-.851,3.438,3.171,3.171,0,0,0,2.973,2h6.366v4.358a3.155,3.155,0,0,0-1.927,1.892H1.061a1.042,1.042,0,1,0,0,2.083H9.745a3.184,3.184,0,0,0,5.976,0H24.4a1.042,1.042,0,1,0,0-2.083ZM5.305,4.167A2.1,2.1,0,0,1,7.427,2.083h10.61A2.1,2.1,0,0,1,20.16,4.167V8.333h-3.8a2.127,2.127,0,0,0-1.5.61l-.439.431H11.05l-.439-.431a2.127,2.127,0,0,0-1.5-.61h-3.8ZM4.244,11.458a1.051,1.051,0,0,1,1.061-1.042h3.8l.439.431a2.127,2.127,0,0,0,1.5.61h3.366a2.127,2.127,0,0,0,1.5-.61l.439-.431h3.8a1.042,1.042,0,1,1,0,2.083H5.305A1.051,1.051,0,0,1,4.244,11.458Zm8.488,11.458a1.042,1.042,0,1,1,1.061-1.042A1.051,1.051,0,0,1,12.732,22.916Z" fill="#a2d02e"/>
</svg>
