<svg xmlns="http://www.w3.org/2000/svg" width="234.398" height="50" viewBox="0 0 234.398 50">
  <g id="Layer_2" data-name="Layer 2" transform="translate(585.532 -0.001)">
    <g id="Layer_1" data-name="Layer 1" transform="translate(-585.532 0.001)">
      <path id="Path_170" data-name="Path 170" d="M158.07,67.419v-27.5h8.463a12.858,12.858,0,0,1,6.495,1.63,11.4,11.4,0,0,1,4.468,4.647,14.372,14.372,0,0,1,1.605,6.848v1.267a14.386,14.386,0,0,1-1.576,6.818,11.277,11.277,0,0,1-4.449,4.628,12.955,12.955,0,0,1-6.48,1.664Zm5.668-22.912V62.883h2.742a6.142,6.142,0,0,0,5.078-2.176,9.812,9.812,0,0,0,1.8-6.214v-1.48q0-4.193-1.741-6.354a6.141,6.141,0,0,0-5.082-2.162Z" transform="translate(-82.552 -21.167)" fill="#fff"/>
      <path id="Path_171" data-name="Path 171" d="M222.678,74.557a6.035,6.035,0,0,1-.551-1.833,6.6,6.6,0,0,1-5.155,2.21A7.254,7.254,0,0,1,212,73.208a5.585,5.585,0,0,1-2-4.391,5.777,5.777,0,0,1,2.418-4.991q2.418-1.741,6.973-1.741h2.51V60.9a3.385,3.385,0,0,0-.725-2.268,2.863,2.863,0,0,0-2.3-.851,3.255,3.255,0,0,0-2.162.663,2.244,2.244,0,0,0-.783,1.813h-5.45a5.5,5.5,0,0,1,1.1-3.288,7.254,7.254,0,0,1,3.095-2.37,11.335,11.335,0,0,1,4.5-.861,8.912,8.912,0,0,1,6,1.9,6.625,6.625,0,0,1,2.22,5.319v8.864a9.734,9.734,0,0,0,.812,4.405v.319Zm-4.517-3.8a4.715,4.715,0,0,0,2.229-.537,3.525,3.525,0,0,0,1.509-1.451V65.263h-2.036c-2.737,0-4.188.967-4.352,2.834v.319a2.186,2.186,0,0,0,.721,1.683A2.79,2.79,0,0,0,218.162,70.761Z" transform="translate(-109.654 -28.305)" fill="#fff"/>
      <path id="Path_172" data-name="Path 172" d="M262.126,54.11,262.3,56.4a7.2,7.2,0,0,1,5.876-2.665q3.946,0,5.421,3.119a7.017,7.017,0,0,1,6.137-3.119,6.1,6.1,0,0,1,4.947,1.934q1.625,1.934,1.625,5.8V74.527h-5.474V61.519a3.91,3.91,0,0,0-.677-2.544,3.052,3.052,0,0,0-2.418-.8,3.414,3.414,0,0,0-3.385,2.345V74.542h-5.44v-13a3.872,3.872,0,0,0-.7-2.573,3.014,3.014,0,0,0-2.379-.793,3.54,3.54,0,0,0-3.385,1.934V74.551H257V54.11Z" transform="translate(-134.275 -28.299)" fill="#fff"/>
      <path id="Path_173" data-name="Path 173" d="M326.908,64.149a12.09,12.09,0,0,1,1.175-5.421,8.555,8.555,0,0,1,3.385-3.685,9.812,9.812,0,0,1,5.111-1.306,9.365,9.365,0,0,1,6.77,2.534,9.989,9.989,0,0,1,2.9,6.877l.034,1.4a10.68,10.68,0,0,1-2.626,7.544,10.163,10.163,0,0,1-14.092.01,10.843,10.843,0,0,1-2.636-7.708Zm5.46.387a7.655,7.655,0,0,0,1.1,4.454,3.936,3.936,0,0,0,6.233,0,8.321,8.321,0,0,0,1.112-4.87,7.554,7.554,0,0,0-1.112-4.43,3.632,3.632,0,0,0-3.134-1.572,3.564,3.564,0,0,0-3.1,1.562A8.6,8.6,0,0,0,332.368,64.536Z" transform="translate(-170.707 -28.303)" fill="#fff"/>
      <path id="Path_174" data-name="Path 174" d="M381.211,54.112l.169,2.365a7.133,7.133,0,0,1,5.875-2.742,5.926,5.926,0,0,1,4.836,1.91,8.916,8.916,0,0,1,1.625,5.706v13.2h-5.46V61.5a3.534,3.534,0,0,0-.759-2.524,3.365,3.365,0,0,0-2.51-.783,3.757,3.757,0,0,0-3.458,1.959V74.558h-5.46V54.112Z" transform="translate(-196.363 -28.301)" fill="#fff"/>
      <path id="Path_175" data-name="Path 175" d="M427.983,44.13v5.024h3.491v4.009h-3.491v10.2a2.418,2.418,0,0,0,.435,1.625,2.164,2.164,0,0,0,1.659.484,8.8,8.8,0,0,0,1.605-.131v4.139a11.33,11.33,0,0,1-3.3.484q-5.745,0-5.856-5.8v-11H419.54V49.154h2.984V44.13Z" transform="translate(-219.254 -23.343)" fill="#fff"/>
      <path id="Path_176" data-name="Path 176" d="M450,64.149a12.09,12.09,0,0,1,1.175-5.421,8.526,8.526,0,0,1,3.385-3.685,9.807,9.807,0,0,1,5.111-1.306,9.355,9.355,0,0,1,6.77,2.534,10.017,10.017,0,0,1,2.9,6.877l.039,1.4a10.68,10.68,0,0,1-2.626,7.544,10.176,10.176,0,0,1-14.1.01A10.939,10.939,0,0,1,450,64.391Zm5.46.387a7.655,7.655,0,0,0,1.1,4.454,3.936,3.936,0,0,0,6.233,0,8.37,8.37,0,0,0,1.112-4.87,7.584,7.584,0,0,0-1.112-4.43,3.636,3.636,0,0,0-3.119-1.552,3.559,3.559,0,0,0-3.095,1.562,8.459,8.459,0,0,0-1.112,4.836Z" transform="translate(-234.982 -28.303)" fill="#fff"/>
      <path id="Path_177" data-name="Path 177" d="M4.033,38.2a12.544,12.544,0,0,0,8.98,3.583c4.749-.039,9.5-.14,14.241-.237A3.3,3.3,0,1,0,27.167,35c-4.647.063-9.29.16-13.937.218A6.108,6.108,0,0,1,7.345,31.83a6.24,6.24,0,0,1,.484-6.8,6.071,6.071,0,0,1,5.145-2.563c2.858-.077,5.716-.116,8.574-.155a8.779,8.779,0,0,0,8.985-9.188c-.053-3.114-.1-6.229-.169-9.343C30.315,1.364,29-.086,26.93.006,25,.088,23.777,1.592,23.806,3.937c.034,2.96.106,5.919.14,8.883.024,2.21-.575,2.863-2.747,2.9-2.81.077-5.619.087-8.424.155A13.057,13.057,0,0,0,.865,24.286,12.8,12.8,0,0,0,4.033,38.2Z" transform="translate(-0.009 -0.001)" fill="#a5c622"/>
      <path id="Path_178" data-name="Path 178" d="M78.716,68.293a13.057,13.057,0,0,1-11.911,8.395c-1.581.039-3.163.058-4.744.087V70.194c1.514-.024,3.022-.053,4.536-.1a6.077,6.077,0,0,0,5.145-2.563,6.231,6.231,0,0,0,.484-6.8,6.106,6.106,0,0,0-5.88-3.385c-4.647.058-9.294.155-13.937.213-2.157.029-3.67-1.311-3.7-3.211s1.451-3.288,3.608-3.337c4.749-.1,9.5-.2,14.241-.237a12.52,12.52,0,0,1,8.985,3.588A12.791,12.791,0,0,1,78.716,68.293Z" transform="translate(-25.158 -26.775)" fill="#fff"/>
      <rect id="Rectangle_68" data-name="Rectangle 68" width="1.228" height="6.562" transform="translate(34.446 43.418)" fill="#a5c622"/>
      <rect id="Rectangle_69" data-name="Rectangle 69" width="1.228" height="6.562" transform="translate(31.99 43.418)" fill="#a5c622"/>
    </g>
  </g>
</svg>
