<svg xmlns="http://www.w3.org/2000/svg" width="234.398" height="50" viewBox="0 0 234.398 50">
  <g id="Layer_2" data-name="Layer 2" transform="translate(-0.009 -0.001)">
    <g id="Layer_1" data-name="Layer 1" transform="translate(0.009 0.001)">
      <path id="Path_188" data-name="Path 188" d="M158.07,67.346V39.908h8.442a12.832,12.832,0,0,1,6.478,1.63,11.375,11.375,0,0,1,4.457,4.636,14.337,14.337,0,0,1,1.6,6.831v1.264a14.351,14.351,0,0,1-1.573,6.8,11.249,11.249,0,0,1-4.438,4.616,12.923,12.923,0,0,1-6.464,1.659Zm5.654-22.855V62.821h2.735a6.127,6.127,0,0,0,5.065-2.171,9.861,9.861,0,0,0,1.79-6.228V52.976q0-4.182-1.732-6.339a6.118,6.118,0,0,0-5.07-2.156Z" transform="translate(-82.533 -21.085)" fill="#050706"/>
      <path id="Path_189" data-name="Path 189" d="M222.642,74.506a6.02,6.02,0,0,1-.55-1.828,6.58,6.58,0,0,1-5.142,2.2,7.236,7.236,0,0,1-4.964-1.722,5.572,5.572,0,0,1-1.992-4.385,5.789,5.789,0,0,1,2.412-4.973q2.412-1.737,6.956-1.737h2.5V60.883a3.377,3.377,0,0,0-.724-2.262,2.856,2.856,0,0,0-2.291-.849,3.247,3.247,0,0,0-2.156.661,2.238,2.238,0,0,0-.781,1.809h-5.437a5.485,5.485,0,0,1,1.1-3.28,7.236,7.236,0,0,1,3.087-2.364,11.307,11.307,0,0,1,4.486-.859,8.89,8.89,0,0,1,5.982,1.9,6.608,6.608,0,0,1,2.214,5.306v8.842a9.71,9.71,0,0,0,.81,4.395V74.5Zm-4.505-3.787a4.7,4.7,0,0,0,2.224-.535,3.516,3.516,0,0,0,1.505-1.447v-3.5h-2.031c-2.73,0-4.177.965-4.341,2.827v.318a2.18,2.18,0,0,0,.719,1.679A2.783,2.783,0,0,0,218.136,70.719Z" transform="translate(-109.627 -28.244)" fill="#050706"/>
      <path id="Path_190" data-name="Path 190" d="M262.113,54.109l.169,2.282a7.163,7.163,0,0,1,5.861-2.658q3.936,0,5.408,3.111a7,7,0,0,1,6.121-3.111,6.082,6.082,0,0,1,4.935,1.93q1.621,1.93,1.621,5.789V74.476h-5.461V61.5a3.88,3.88,0,0,0-.68-2.537,3.031,3.031,0,0,0-2.412-.8A3.4,3.4,0,0,0,274.3,60.5V74.49h-5.422V61.519a3.863,3.863,0,0,0-.695-2.566,3.007,3.007,0,0,0-2.373-.791,3.531,3.531,0,0,0-3.377,1.93V74.5H257V54.109Z" transform="translate(-134.231 -28.238)" fill="#050706"/>
      <path id="Path_191" data-name="Path 191" d="M326.908,64.123a12.06,12.06,0,0,1,1.172-5.408,8.5,8.5,0,0,1,3.377-3.676,9.783,9.783,0,0,1,5.094-1.3,9.332,9.332,0,0,1,6.753,2.528,9.992,9.992,0,0,1,2.894,6.86l.039,1.394a10.653,10.653,0,0,1-2.619,7.525,10.138,10.138,0,0,1-14.057.01,10.816,10.816,0,0,1-2.629-7.689Zm5.446.386a7.628,7.628,0,0,0,1.1,4.443,3.927,3.927,0,0,0,6.218,0,8.3,8.3,0,0,0,1.109-4.858,7.535,7.535,0,0,0-1.109-4.419,3.628,3.628,0,0,0-3.131-1.568,3.55,3.55,0,0,0-3.087,1.558A8.574,8.574,0,0,0,332.354,64.509Z" transform="translate(-170.673 -28.243)" fill="#050706"/>
      <path id="Path_192" data-name="Path 192" d="M381.2,54.112l.169,2.359a7.115,7.115,0,0,1,5.861-2.735,5.92,5.92,0,0,1,4.824,1.905,8.856,8.856,0,0,1,1.621,5.692V74.5h-5.446V61.478a3.54,3.54,0,0,0-.757-2.518,3.369,3.369,0,0,0-2.5-.781,3.748,3.748,0,0,0-3.449,1.954V74.507H376.07v-20.4Z" transform="translate(-196.326 -28.241)" fill="#050706"/>
      <path id="Path_193" data-name="Path 193" d="M427.962,44.13v5.012h3.483v4h-3.483V63.315a2.412,2.412,0,0,0,.429,1.621,2.179,2.179,0,0,0,1.659.482,8.78,8.78,0,0,0,1.6-.13v4.129a11.3,11.3,0,0,1-3.295.482q-5.731,0-5.842-5.789V53.141H419.54v-4h2.976V44.13Z" transform="translate(-219.17 -23.271)" fill="#050706"/>
      <path id="Path_194" data-name="Path 194" d="M450,64.123a12.108,12.108,0,0,1,1.167-5.408,8.548,8.548,0,0,1,3.377-3.676,9.783,9.783,0,0,1,5.1-1.3,9.332,9.332,0,0,1,6.753,2.528,9.992,9.992,0,0,1,2.894,6.86l.039,1.394a10.653,10.653,0,0,1-2.619,7.525,10.15,10.15,0,0,1-14.066.01A10.912,10.912,0,0,1,450,64.364Zm5.446.386a7.628,7.628,0,0,0,1.1,4.443,3.927,3.927,0,0,0,6.218,0,8.35,8.35,0,0,0,1.109-4.858,7.566,7.566,0,0,0-1.109-4.419,3.628,3.628,0,0,0-3.111-1.548,3.55,3.55,0,0,0-3.087,1.558,8.438,8.438,0,0,0-1.109,4.824Z" transform="translate(-234.934 -28.243)" fill="#050706"/>
      <path id="Path_195" data-name="Path 195" d="M4.023,38.109a12.513,12.513,0,0,0,8.958,3.574c4.737-.039,9.474-.14,14.206-.236a3.288,3.288,0,1,0-.087-6.536c-4.636.063-9.267.159-13.9.217a6.093,6.093,0,0,1-5.871-3.377,6.225,6.225,0,0,1,.482-6.782,6.056,6.056,0,0,1,5.133-2.557c2.851-.077,5.7-.116,8.553-.154a8.757,8.757,0,0,0,8.963-9.165c-.053-3.107-.1-6.213-.169-9.32C30.24,1.361,28.933-.086,26.864.006c-1.93.082-3.145,1.582-3.116,3.922.034,2.952.106,5.9.14,8.861.024,2.2-.574,2.856-2.74,2.894-2.8.077-5.605.087-8.4.154A13.024,13.024,0,0,0,.863,24.226a12.764,12.764,0,0,0,3.16,13.883Z" transform="translate(-0.009 -0.001)" fill="#a5c622"/>
      <path id="Path_196" data-name="Path 196" d="M78.642,68.25A13.024,13.024,0,0,1,66.76,76.624c-1.577.039-3.155.058-4.732.087V70.146c1.51-.024,3.015-.053,4.525-.1a6.062,6.062,0,0,0,5.133-2.557,6.215,6.215,0,0,0,.482-6.782A6.091,6.091,0,0,0,66.3,57.334c-4.636.058-9.271.154-13.9.212-2.151.029-3.661-1.307-3.69-3.2s1.447-3.28,3.6-3.328c4.737-.1,9.474-.2,14.206-.236a12.489,12.489,0,0,1,8.963,3.579A12.759,12.759,0,0,1,78.642,68.25Z" transform="translate(-25.217 -26.711)" fill="#050706"/>
      <rect id="Rectangle_75" data-name="Rectangle 75" width="1.225" height="6.546" transform="translate(34.361 43.435)" fill="#a5c622"/>
      <rect id="Rectangle_76" data-name="Rectangle 76" width="1.225" height="6.546" transform="translate(31.911 43.435)" fill="#a5c622"/>
    </g>
  </g>
</svg>
