<svg xmlns="http://www.w3.org/2000/svg" width="131.348" height="129.052" viewBox="0 0 131.348 129.052">
  <g id="Group_52" data-name="Group 52" transform="translate(-1269.826 -1943.948)">
    <path id="blob_2_" data-name="blob (2)" d="M77.508-5.26c6.133,20-10.951,46.434-32.124,60.16S-1.05,69.5-14.629,58.55-30.107,24.966-23.682,4.669C-17.112-15.774-2.364-33.88,19.831-36.216,41.88-38.553,71.23-25.265,77.508-5.26Z" transform="translate(1306.531 2001.867) rotate(-17)" fill="#a2d02e" opacity="0.999"/>
    <path id="bug" d="M55,17.5a5,5,0,0,0,5-5V2.5a2.5,2.5,0,1,0-5,0v10H45c-.045,0-.08.022-.125.025a16.028,16.028,0,0,0-29.725,0c-.052,0-.1-.025-.15-.025H5V2.5a2.5,2.5,0,1,0-5,0v10a5,5,0,0,0,5,5h8.713l-2.532,10H2.5a2.5,2.5,0,0,0,0,5H9.913L9.55,33.932l-.05.318a20.925,20.925,0,0,0-.175,2.58,20.5,20.5,0,0,0,.808,5.67H5a5,5,0,0,0-5,5v10a2.5,2.5,0,0,0,5,0v-10h7.325a20.62,20.62,0,0,0,35.35,0H55v10a2.5,2.5,0,0,0,5,0v-10a5,5,0,0,0-5-5H49.868a20.5,20.5,0,0,0,.813-5.682,20.924,20.924,0,0,0-.18-2.568l-.437-1.75H57.5a2.5,2.5,0,0,0,0-5h-8.7l-2.522-10Zm-25,35A15.7,15.7,0,0,1,14.32,36.818,15.469,15.469,0,0,1,14.437,35l5.075-20.075a11.12,11.12,0,0,1,20.94-.1L45.563,35a15.47,15.47,0,0,1,.118,1.813A15.7,15.7,0,0,1,30,52.5Z" transform="translate(1305 2013)" fill="#09080d"/>
  </g>
</svg>
