<svg xmlns="http://www.w3.org/2000/svg" width="131.348" height="129.052" viewBox="0 0 131.348 129.052">
  <g id="Group_51" data-name="Group 51" transform="translate(-905.652 -1943.948)">
    <path id="blob_2_" data-name="blob (2)" d="M77.508-5.26c6.133,20-10.951,46.434-32.124,60.16S-1.05,69.5-14.629,58.55-30.107,24.966-23.682,4.669C-17.112-15.774-2.364-33.88,19.831-36.216,41.88-38.553,71.23-25.265,77.508-5.26Z" transform="translate(942.357 2001.867) rotate(-17)" fill="#a2d02e"/>
    <path id="rocket-lunch" d="M44.987,21.222a6.242,6.242,0,1,1-6.242-6.242A6.242,6.242,0,0,1,44.987,21.222Zm-.015,17.142a27.625,27.625,0,0,1-2.9,11.407A19.059,19.059,0,0,1,25.014,59.92h-2.5V46.188a8.781,8.781,0,0,0-8.738-8.738H.048v-2.5A19.059,19.059,0,0,1,10.2,17.9,27.625,27.625,0,0,1,21.6,15,38.665,38.665,0,0,1,52.407,0h0a7.512,7.512,0,0,1,7.56,7.49A38.715,38.715,0,0,1,44.972,38.364ZM5.251,32.457H10.9a85.787,85.787,0,0,1,6.514-11.892,22.453,22.453,0,0,0-4.976,1.8A13.779,13.779,0,0,0,5.251,32.457ZM39.4,42.556a85.786,85.786,0,0,1-11.892,6.514v5.647A13.779,13.779,0,0,0,37.6,47.531,22.452,22.452,0,0,0,39.4,42.556ZM54.974,7.42a2.5,2.5,0,0,0-2.5-2.427c-12.883.367-21.6,5.3-30,17.032A74.7,74.7,0,0,0,16.3,32.689,13.732,13.732,0,0,1,27.289,43.674,74.7,74.7,0,0,0,37.952,37.5C49.671,29.086,54.607,20.373,54.974,7.42ZM15.332,44.638a7.527,7.527,0,0,1,0,10.591c-2.264,2.262-9.043,3.658-11.854,4.154L-.032,60l.617-3.51c.5-2.811,1.892-9.59,4.154-11.854a7.672,7.672,0,0,1,10.593,0Zm-2.8,5.3a2.5,2.5,0,0,0-4.262-1.765,18.27,18.27,0,0,0-1.98,5.51A18.331,18.331,0,0,0,11.8,51.7,2.479,2.479,0,0,0,12.531,49.933Z" transform="translate(930.032 2013)" fill="#09080d"/>
  </g>
</svg>
