<svg xmlns="http://www.w3.org/2000/svg" width="131.348" height="129.049" viewBox="0 0 131.348 129.049">
  <g id="Group_50" data-name="Group 50" transform="translate(-526.652 -1943.948)">
    <path id="blob_2_" data-name="blob (2)" d="M77.508-5.26c6.133,20-10.951,46.434-32.124,60.16S-1.05,69.5-14.629,58.55-30.107,24.966-23.682,4.669C-17.112-15.774-2.364-33.88,19.831-36.216,41.88-38.553,71.23-25.265,77.508-5.26Z" transform="translate(563.357 2001.867) rotate(-17)" fill="#a2d02e"/>
    <g id="_01_align_center" data-name="01 align center" transform="translate(555 2012.999)">
      <path id="Path_1" data-name="Path 1" d="M52.5,40V30a22.405,22.405,0,0,0-8.427-17.5h6.62a4.977,4.977,0,1,0-.023-5H39.645a9.953,9.953,0,0,0-19.29,0H9.307a4.978,4.978,0,1,0,.022,5h6.6A22.4,22.4,0,0,0,7.5,30V40H0V52.5A7.5,7.5,0,0,0,7.5,60H20V40H12.5V30a17.482,17.482,0,0,1,8.805-15.158,9.908,9.908,0,0,0,17.39,0A17.483,17.483,0,0,1,47.5,30V40H40V60H52.5A7.5,7.5,0,0,0,60,52.5V40ZM15,55H7.5A2.5,2.5,0,0,1,5,52.5V45H15ZM30,15a5,5,0,1,1,5-5A5,5,0,0,1,30,15ZM55,52.5A2.5,2.5,0,0,1,52.5,55H45V45H55Z" fill="#09080d"/>
    </g>
  </g>
</svg>
