<svg id="apps" xmlns="http://www.w3.org/2000/svg" width="30" height="30" viewBox="0 0 30 30">
  <path id="Path_166" data-name="Path 166" d="M6.723,13.445a6.723,6.723,0,1,1,6.723-6.723A6.723,6.723,0,0,1,6.723,13.445Zm0-9.778A3.056,3.056,0,1,0,9.778,6.723,3.056,3.056,0,0,0,6.723,3.667Z" fill="#a2d02e"/>
  <path id="Path_167" data-name="Path 167" d="M284.057,13.445a6.723,6.723,0,1,1,6.723-6.723A6.723,6.723,0,0,1,284.057,13.445Zm0-9.778a3.056,3.056,0,1,0,3.056,3.056A3.056,3.056,0,0,0,284.057,3.667Z" transform="translate(-260.779)" fill="#a2d02e"/>
  <path id="Path_168" data-name="Path 168" d="M6.723,290.779a6.723,6.723,0,1,1,6.723-6.723A6.723,6.723,0,0,1,6.723,290.779Zm0-9.778a3.056,3.056,0,1,0,3.056,3.056A3.056,3.056,0,0,0,6.723,281Z" transform="translate(0 -260.779)" fill="#a2d02e"/>
  <path id="Path_169" data-name="Path 169" d="M284.057,290.779a6.723,6.723,0,1,1,6.723-6.723A6.723,6.723,0,0,1,284.057,290.779Zm0-9.778a3.056,3.056,0,1,0,3.056,3.056A3.056,3.056,0,0,0,284.057,281Z" transform="translate(-260.779 -260.779)" fill="#a2d02e"/>
</svg>
