<svg xmlns="http://www.w3.org/2000/svg" width="55.477" height="37" viewBox="0 0 55.477 37">
  <path id="Icon_ionic-ios-arrow-round-forward" data-name="Icon ionic-ios-arrow-round-forward" d="M43.254,11.96a2.518,2.518,0,0,0-.019,3.546L54.951,27.241H10.361a2.505,2.505,0,0,0,0,5.01H54.931L43.215,43.986a2.536,2.536,0,0,0,.019,3.546,2.5,2.5,0,0,0,3.526-.019L62.639,31.519h0a2.813,2.813,0,0,0,.52-.79,2.391,2.391,0,0,0,.193-.963,2.512,2.512,0,0,0-.713-1.754L46.761,12.018A2.455,2.455,0,0,0,43.254,11.96Z" transform="translate(-7.875 -11.251)"/>
</svg>
