<svg xmlns="http://www.w3.org/2000/svg" viewBox="0 0 85.68 115.19"><defs><style>.cls-1{fill:#555455;}.cls-2{fill:#469cd6;}.cls-3{fill:#fff;}</style></defs><g id="Layer_2" data-name="Layer 2"><g id="Layer_1-2" data-name="Layer 1"><path class="cls-1" d="M42.75,11.25c0,3.24,0,6.48,0,9.71,0,1.11-.23,1.46-1.37,1.57-8.44.76-14.34,5.14-17.6,12.93C18.88,47.28,27,61.33,39.62,63.11a20.47,20.47,0,0,0,23.5-17.52s0-.08,0-.12c.17-.82-.29-2,.33-2.39s1.69-.16,2.57-.16c6.14,0,12.29,0,18.44,0,.94,0,1.24.23,1.19,1.19-.08,1.59-.06,3.19,0,4.79,0,.82-.21,1.1-1.06,1.09a23.89,23.89,0,0,0-4.78.14A8.48,8.48,0,0,0,73,56.22a8.4,8.4,0,0,0,2.1,8.94c.78.81,1.55,1.63,2.38,2.37.54.48.59.76,0,1.3q-4.44,4.36-8.8,8.82c-.51.53-.78.42-1.21-.06-.78-.85-1.61-1.66-2.45-2.46a8.42,8.42,0,0,0-9.29-1.91A8.31,8.31,0,0,0,50,80.74a39.2,39.2,0,0,0-.06,4.2c0,.61-.1.82-.78.81-4.15,0-8.3,0-12.45,0-.8,0-.89-.31-.9-1a21.53,21.53,0,0,0-.31-5.61A8.94,8.94,0,0,0,20.79,75c-.93.88-1.83,1.78-2.7,2.72-.4.42-.63.38-1,0-3-3-5.95-6-9-9-.5-.49-.37-.72.05-1.12.82-.76,1.6-1.56,2.38-2.36a8.58,8.58,0,0,0,1.93-9.72,8.64,8.64,0,0,0-8-5.58c-1.16,0-2.32,0-3.48,0C.31,50,0,49.85,0,49.12q0-6.24,0-12.48c0-.72.3-.87.93-.85,1.2,0,2.4,0,3.59,0a8.35,8.35,0,0,0,7.94-5.55,8.41,8.41,0,0,0-1.61-9.35c-.85-1-1.77-1.85-2.7-2.72-.44-.42-.51-.67,0-1.13Q12.58,12.62,17,8.13c.41-.42.68-.5,1.11,0,.76.82,1.57,1.59,2.37,2.38a8.56,8.56,0,0,0,9.9,1.92A8.64,8.64,0,0,0,35.77,4.1c0-1.07,0-2.16,0-3.23,0-.7.24-.88.9-.86,1.67,0,3.35.06,5,0,.84,0,1.11.21,1.08,1.06-.05,1.71,0,3.43,0,5.15Z"/><path class="cls-2" d="M79.56,39.4c-.79-.47-.45-1.81-.63-2.77A36.22,36.22,0,0,0,62.64,12,34.32,34.32,0,0,0,47,6.51c-.68-.07-.88-.29-.87-.94,0-1.52.06-3,0-4.55,0-.92.35-1.08,1.13-1a45.66,45.66,0,0,1,12,3A42.22,42.22,0,0,1,78.5,18.66a41.64,41.64,0,0,1,6.72,16.87c.17,1,.27,2,.43,3.07.11.64,0,1-.77,1"/><path class="cls-2" d="M67.6,39.38c-.61-.45-.56-1.79-.8-2.74A24.43,24.43,0,0,0,47,18.49c-.69-.1-.84-.37-.83-1,0-1.4,0-2.8,0-4.2s.06-1.49,1.51-1.25a31,31,0,0,1,11.17,4c8.47,5.15,13.29,12.72,14.87,22.46.13.8-.14,1.09-.94,1s-1.52,0-2.28,0"/><path class="cls-2" d="M53.94,39.55c-2.24,0-4.47,0-6.71,0-.72,0-1.08-.12-1.07-1,0-4.56,0-9.11,0-13.67,0-1,.43-1.08,1.18-.87,7.54,2,12.34,6.8,14.32,14.4.24.9,0,1.13-.9,1.11C58.49,39.52,56.21,39.55,53.94,39.55Z"/><path class="cls-1" d="M58.31,94.57c2.71,0,5.42,0,8.14,0,.8,0,1.14.15,1.1,1-.08,1.39,0,2.79,0,4.19,0,.54,0,1-.73.88s-1.68.63-1.91-.71c-.13-.75-.34-1.48-.41-2.23s-.51-1.06-1.26-1.08C61,96.58,61,96.56,61,98.88c0,4.15,0,8.31,0,12.47,0,1.21.3,1.85,1.58,1.76.88-.06,1,.41,1,1.18,0,.53-.23.66-.72.66-3.08,0-6.15,0-9.22,0-.55,0-.73-.2-.66-.7s-.27-1,.54-1.08c.32,0,.64-.08.95-.09a1,1,0,0,0,1.12-1.1V97.34c0-.16,0-.42,0-.46-.85-.46-1.78-.16-2.67-.19-.51,0-.78.34-.85.84-.11.75-.25,1.49-.34,2.25s-.3,1-1,.93c-1.65,0-1.66,0-1.66-1.68,0-1.16,0-2.32,0-3.48,0-.81.27-1,1-1,2.79,0,5.58,0,8.38,0Z"/><path class="cls-2" d="M48.38,107.31c.21,4.57-2.75,7.52-7.59,7.84a14.54,14.54,0,0,1-4-.25c-4.61-1-6.27-4.73-5.76-8.69s3.1-6.25,7.17-6.59a13.28,13.28,0,0,1,4.17.15C46.37,100.71,48.36,103.17,48.38,107.31Z"/><path class="cls-1" d="M23.51,114.94c-1.52,0-3,0-4.55,0-.62,0-.85-.17-.83-.81s0-.93.78-1c1.9-.21,1.89-.26,1.89-2.25V98.17c0-1.65,0-1.72-1.62-1.72-1,0-1.09-.46-1-1.24,0-.46.17-.64.63-.63,3.19,0,6.39,0,9.58,0,.6,0,.65.33.59.76s.28,1-.54,1.08c-.65.07-1.46-.25-1.93.35s-.21,1.54-.21,2.32c0,4.19,0,8.39,0,12.58,0,1,.3,1.45,1.36,1.47.48,0,1.35-.37,1.38.76,0,.81-.16,1.12-1,1.08-1.47-.08-3,0-4.43,0Z"/><path class="cls-3" d="M42.65,107.49a14.5,14.5,0,0,1-.25,3.08c-.44,1.72-1.28,2.63-2.61,2.67A2.94,2.94,0,0,1,37,110.63a14.34,14.34,0,0,1,.16-7,2.67,2.67,0,0,1,2.41-2.14c1.28-.08,2,.43,2.58,1.86A10.7,10.7,0,0,1,42.65,107.49Z"/></g></g></svg>