<svg xmlns="http://www.w3.org/2000/svg" width="41" height="41" viewBox="0 0 41 41">
  <g id="Group_53" data-name="Group 53" transform="translate(-517 -4989)">
    <g id="Group_24" data-name="Group 24" transform="translate(1722 4669) rotate(90)">
      <path id="arrow-down" d="M15.452,14.085a.792.792,0,0,0-1.124,0l-2.874,2.874V.792A.792.792,0,0,0,10.662,0h0A.792.792,0,0,0,9.87.792v16.16L7,14.085A.792.792,0,1,0,5.911,15.2l3.1,3.1a2.375,2.375,0,0,0,3.357,0l3.1-3.1A.792.792,0,0,0,15.452,14.085Z" transform="translate(329.427 1175)" fill="#080b09"/>
      <g id="Ellipse_1" data-name="Ellipse 1" transform="translate(320 1164)" fill="none" stroke="#a2d02e" stroke-width="1">
        <circle cx="20.5" cy="20.5" r="20.5" stroke="none"/>
        <circle cx="20.5" cy="20.5" r="20" fill="none"/>
      </g>
    </g>
  </g>
</svg>
