<svg xmlns="http://www.w3.org/2000/svg" width="135" height="53" viewBox="0 0 135 53">
  <g id="Group_48" data-name="Group 48" transform="translate(-149 -45)">
    <g id="Group_33" data-name="Group 33" transform="translate(-2312 221)">
      <path id="Rectangle_33" data-name="Rectangle 33" d="M10,0H29A10,10,0,0,1,39,10V29A10,10,0,0,1,29,39H0a0,0,0,0,1,0,0V10A10,10,0,0,1,10,0Z" transform="translate(2461 -162)" fill="#080b09"/>
      <path id="Rectangle_34" data-name="Rectangle 34" d="M10,0H39a0,0,0,0,1,0,0V29A10,10,0,0,1,29,39H10A10,10,0,0,1,0,29V10A10,10,0,0,1,10,0Z" transform="translate(2477 -176)" fill="#080b09" opacity="0.407"/>
    </g>
    <text id="DMT" transform="translate(229 81)" fill="#080b09" font-size="25" font-family="Helvetica-Bold, Helvetica" font-weight="700" opacity="0.997"><tspan x="0" y="0">DMT</tspan></text>
  </g>
</svg>
