<svg xmlns="http://www.w3.org/2000/svg" width="22.907" height="25" viewBox="0 0 22.907 25">
  <g id="power" transform="translate(-21.447)">
    <path id="Path_2" data-name="Path 2" d="M225.427,0h0a1.366,1.366,0,0,1,1.366,1.366V5.921a1.366,1.366,0,0,1-1.366,1.366h0a1.366,1.366,0,0,1-1.366-1.366V1.366A1.366,1.366,0,0,1,225.427,0Z" transform="translate(-192.531 0)" fill="#a2d02e"/>
    <path id="Path_3" data-name="Path 3" d="M36.54,74.894h0a1.553,1.553,0,0,0,.7,1.324A8.6,8.6,0,0,1,40,87.906a8.232,8.232,0,0,1-11.449,2.822A8.6,8.6,0,0,1,25.789,79.04a8.419,8.419,0,0,1,2.746-2.811,1.572,1.572,0,0,0,.717-1.335h0A1.578,1.578,0,0,0,27.7,73.3a1.538,1.538,0,0,0-.837.246,11.834,11.834,0,0,0-3.686,16.1A11.316,11.316,0,0,0,38.943,93.4a11.834,11.834,0,0,0,3.686-16.1,11.575,11.575,0,0,0-3.686-3.763,1.548,1.548,0,0,0-2.161.5A1.624,1.624,0,0,0,36.54,74.894Z" transform="translate(0 -70.165)" fill="#a2d02e"/>
  </g>
</svg>
