<svg xmlns="http://www.w3.org/2000/svg" width="22.494" height="25" viewBox="0 0 22.494 25">
  <g id="settings" transform="translate(-1.203)">
    <path id="Path_4" data-name="Path 4" d="M11.629,8a3.629,3.629,0,1,0,3.629,3.629A3.629,3.629,0,0,0,11.629,8Zm0,5.443a1.814,1.814,0,1,1,1.814-1.814A1.814,1.814,0,0,1,11.629,13.443Z" transform="translate(0.821 0.871)" fill="#a2d02e"/>
    <path id="Path_5" data-name="Path 5" d="M22.131,14.479l-.463-.267a9.479,9.479,0,0,0,0-3.427l.463-.267A3.127,3.127,0,1,0,19.006,5.1l-.464.268a9.351,9.351,0,0,0-2.968-1.71V3.125a3.125,3.125,0,1,0-6.25,0v.534A9.351,9.351,0,0,0,6.358,5.374L5.893,5.1a3.127,3.127,0,1,0-3.125,5.417l.462.267a9.479,9.479,0,0,0,0,3.427l-.463.267A3.127,3.127,0,0,0,5.893,19.9l.464-.268a9.351,9.351,0,0,0,2.969,1.71v.534a3.125,3.125,0,1,0,6.25,0v-.534a9.351,9.351,0,0,0,2.967-1.715l.466.269a3.127,3.127,0,1,0,3.125-5.417Zm-2.654-3.933a7.342,7.342,0,0,1,0,3.906,1.042,1.042,0,0,0,.483,1.18l1.129.652a1.042,1.042,0,1,1-1.042,1.805l-1.131-.654a1.042,1.042,0,0,0-1.266.172,7.275,7.275,0,0,1-3.378,1.953,1.042,1.042,0,0,0-.782,1.009v1.305a1.042,1.042,0,1,1-2.083,0v-1.3a1.042,1.042,0,0,0-.782-1.009A7.275,7.275,0,0,1,7.248,17.6a1.042,1.042,0,0,0-1.266-.172l-1.129.653a1.042,1.042,0,1,1-1.042-1.8l1.129-.652a1.042,1.042,0,0,0,.483-1.18,7.342,7.342,0,0,1,0-3.906,1.042,1.042,0,0,0-.484-1.176L3.81,8.715A1.042,1.042,0,0,1,4.852,6.909l1.131.654A1.042,1.042,0,0,0,7.248,7.4a7.275,7.275,0,0,1,3.378-1.953,1.042,1.042,0,0,0,.782-1.014v-1.3a1.042,1.042,0,1,1,2.083,0v1.3a1.042,1.042,0,0,0,.782,1.009A7.275,7.275,0,0,1,17.652,7.4a1.042,1.042,0,0,0,1.266.172l1.129-.653a1.042,1.042,0,1,1,1.042,1.8l-1.129.652a1.042,1.042,0,0,0-.482,1.176Z" transform="translate(0 0)" fill="#a2d02e"/>
  </g>
</svg>
