<svg xmlns="http://www.w3.org/2000/svg" viewBox="0 0 132.61 34.52"><g id="Layer_2" data-name="Layer 2"><g id="Layer_1-2" data-name="Layer 1"><path d="M10.91,30.09A7.52,7.52,0,0,1,3.4,22.57c0-4.81,7.51-17.09,7.51-17.09s7.51,12.28,7.51,17.09a7.52,7.52,0,0,1-7.51,7.52M10.91,0S0,16.51,0,23.61a10.91,10.91,0,0,0,21.82,0C21.82,16.51,10.91,0,10.91,0"/><path d="M42.06,15.27c-3.18-.75-3.93-1.31-3.93-2.58v0c0-1.08,1-2,2.68-2a7.45,7.45,0,0,1,4.47,1.7l1.56-2.19a9.14,9.14,0,0,0-6-2.07c-3.27,0-5.62,2-5.62,4.78v0c0,3,2,4.07,5.48,4.91,3.06.71,3.72,1.35,3.72,2.52v.05c0,1.22-1.13,2.07-2.92,2.07a7.66,7.66,0,0,1-5.2-2.14l-1.74,2.07a10.15,10.15,0,0,0,6.87,2.63c3.46,0,5.88-1.83,5.88-4.91v0c0-2.73-1.78-4-5.27-4.83"/><path d="M65.63,17.84c0,3-1.57,4.57-4.14,4.57s-4.17-1.63-4.17-4.69V8.36H54.43v9.48c0,4.78,2.73,7.25,7,7.25s7.09-2.47,7.09-7.39V8.36h-2.9Z"/><polygon points="75.17 11.04 80.41 11.04 80.41 24.83 83.31 24.83 83.31 11.04 88.56 11.04 88.56 8.36 75.17 8.36 75.17 11.04"/><path d="M98.48,16.52V11h4.21c2.14,0,3.41,1,3.41,2.73v0c0,1.67-1.32,2.75-3.39,2.75ZM109,13.6v0A5,5,0,0,0,107.68,10a6.66,6.66,0,0,0-4.76-1.64H95.58v8.16H94.17v2.57h1.41v5.74h2.9V19.09h3.62l4.05,5.74h3.44l-4.45-6.24a4.94,4.94,0,0,0,3.9-5"/><path d="M129.58,16.64A5.55,5.55,0,0,1,124,22.43a5.63,5.63,0,0,1-5.6-5.84v0A5.54,5.54,0,0,1,124,10.76a5.62,5.62,0,0,1,5.6,5.83ZM124,8.07a8.44,8.44,0,0,0-8.63,8.52v.05a8.61,8.61,0,0,0,17.22-.05v0A8.37,8.37,0,0,0,124,8.07"/></g></g></svg>